<svg width="116" height="116" viewBox="0 0 116 116" fill="none" xmlns="http://www.w3.org/2000/svg">
<path d="M46.0019 6.03765C43.9871 6.0517 41.9981 6.33807 40.0676 6.91513C38.1522 7.48833 36.3877 8.31913 34.7864 9.37718C36.5359 13.8228 41.0021 19.466 46.1757 24.2834C51.5774 29.3135 57.7712 33.5872 61.7711 35.5146L61.818 35.5372L61.864 35.5606C65.5398 37.449 68.1421 40.421 69.6442 43.6996C70.6116 45.8107 71.1751 48.0219 71.5036 50.2699C74.4489 47.9726 77.5537 46.1329 80.7102 44.7977C80.47 40.6494 79.5574 36.2994 77.8954 31.9437C74.4095 22.8087 68.3208 15.4545 61.4254 10.9695C56.4693 7.74593 51.151 6.00185 46.0019 6.03765ZM28.6907 15.6224C27.5323 17.4199 26.5823 19.4241 25.8605 21.6007C23.4499 28.8674 23.6454 37.983 27.1315 47.1184C29.2413 52.6472 32.3055 57.5222 35.9244 61.5051C39.4896 62.5718 43.0158 64.2198 46.3282 66.456C48.8874 68.184 51.168 70.1619 53.1443 72.3131C53.7893 72.4699 54.4346 72.6035 55.0792 72.7087C56.3071 69.5055 57.901 66.3187 59.8651 63.227C61.0533 61.3547 62.3555 59.5572 63.7642 57.8446C63.7805 56.6683 63.771 55.5284 63.715 54.4402C63.5632 51.4972 63.092 48.9801 62.2288 47.0964C61.366 45.2128 60.2418 43.8969 58.1371 42.8158L58.23 42.8615C53.0467 40.3637 46.574 35.7991 40.617 30.2522C35.8818 25.8433 31.4892 20.9049 28.6907 15.6224ZM92.0721 46.3726C89.0119 46.3975 85.7745 47.1082 82.4993 48.4678C75.5121 51.3683 68.4964 57.2471 63.3072 65.414C60.6526 69.5923 58.7449 73.9486 57.5589 78.22C62.2147 86.0314 63.3582 95.0042 60.0042 102.54C60.5465 103.314 61.1516 104.043 61.8135 104.718C66.7172 100.487 72.3686 96.9821 76.3851 93.3832C78.5805 91.4166 80.2428 89.4693 81.1665 87.6149C82.0902 85.76 82.408 84.0585 81.9277 81.7417L81.8996 81.6069L81.881 81.471C80.0565 68.2637 83.2574 60.5021 87.9221 55.7538C91.6731 51.9363 95.4068 49.9255 97.9826 47.2709C96.1216 46.6524 94.1374 46.3556 92.0721 46.3726ZM104.929 51.7994C101.161 56.4825 96.5156 58.6455 93.7402 61.4705C90.5511 64.7167 88.3496 68.6242 89.9532 80.2987C90.7254 84.2681 90.0468 88.0802 88.4674 91.2512C86.8595 94.479 84.455 97.1038 81.828 99.4577C77.8376 103.033 73.2345 106.095 69.3839 109.082C73.7508 110.217 78.7228 109.668 83.7853 107.566C90.7725 104.666 97.7887 98.7865 102.977 90.6196C108.167 82.4524 110.508 73.6031 110.166 66.0459C109.904 60.2663 108.119 55.3141 104.929 51.7997L104.929 51.7994ZM89.9532 80.2987C89.9396 80.2273 89.9288 80.1564 89.9138 80.0851L89.9609 80.3554C89.9588 80.3364 89.9563 80.3176 89.9535 80.2987H89.9532ZM26.4652 64.1167C22.3003 64.0791 18.3769 64.9924 15.0748 66.7917C15.0974 66.7924 15.1172 66.794 15.1398 66.7947C17.095 66.8638 19.5496 66.6332 22.3758 67.019C25.2017 67.4051 28.5122 68.6883 31.02 71.526C33.5281 74.3635 35.2477 78.3863 36.4455 84.1637L36.4738 84.2982L36.4924 84.4346C37.0482 88.4656 39.6158 90.7976 44.0673 92.981C47.8654 94.844 52.7417 96.1744 57.3704 97.5288C59.4434 88.2397 54.5248 76.9103 44.0462 69.8361C38.3962 66.0217 32.2029 64.1686 26.4657 64.1167H26.4652ZM8.09598 73.5071C2.37075 83.3693 6.96226 97.841 19.4481 106.271C31.7335 114.565 46.5871 113.583 53.7361 104.979C49.5592 103.789 44.824 102.437 40.4754 100.304C34.868 97.5539 29.5234 92.9321 28.4449 85.7541C27.4179 80.8377 26.0456 78.2141 24.9083 76.9272C23.7664 75.6343 22.876 75.3198 21.2719 75.1012C19.6679 74.8818 17.4634 75.0384 14.8528 74.9464C12.8182 74.8748 10.4312 74.5828 8.09598 73.5073V73.5071ZM28.4451 85.7539C28.4501 85.7766 28.4551 85.7974 28.4599 85.8203L28.413 85.5493C28.4225 85.6182 28.4349 85.6852 28.4454 85.7541L28.4451 85.7539Z" fill="#2E2153"/>
</svg>
