<svg width="168" height="168" viewBox="0 0 168 168" fill="none" xmlns="http://www.w3.org/2000/svg">
<path d="M155.029 127.692L89.6559 163.976C86.5197 165.716 81.3878 165.716 78.2519 163.976L12.8786 127.692C11.3105 126.822 10.5266 125.674 10.5266 124.527H9.83227V43.4731H157.381V124.527C157.381 125.674 156.597 126.822 155.029 127.692Z" fill="#674AB9"/>
<path d="M157.381 43.473V124.527C157.381 125.675 156.597 126.822 155.029 127.692L89.6559 163.976C88.0251 164.881 85.8552 165.312 83.7063 165.275C83.7572 124.687 84.9109 84.0486 83.6496 43.4727L157.381 43.473Z" fill="#B69CFE"/>
<path d="M78.2516 82.9212L12.8786 46.6375C9.74236 44.8968 9.74236 42.0486 12.8786 40.3079L78.2516 4.02452C81.3878 2.28382 86.5197 2.28382 89.6556 4.02452L155.029 40.3083C158.165 42.049 158.165 44.8971 155.029 46.6378L89.6559 82.9212C86.5197 84.6619 81.3878 84.6619 78.2516 82.9212Z" fill="#674AB9" fill-opacity="0.4"/>
<path d="M128.326 24.3217C128.323 24.7053 128.217 25.0809 128.018 25.4089C127.819 25.737 127.535 26.0053 127.197 26.1858L48.869 67.9381C48.7611 67.9955 48.6484 68.0436 48.5323 68.0818L48.2675 68.2298V146.15C48.2675 146.521 48.1706 146.886 47.9863 147.208C47.8021 147.531 47.5368 147.799 47.2168 147.988C46.8968 148.176 46.5332 148.278 46.1619 148.282C45.7906 148.287 45.4245 148.195 45.0998 148.015L31.9748 140.73C31.642 140.545 31.3648 140.275 31.1717 139.947C30.9787 139.619 30.8769 139.245 30.8769 138.865V63.0401C30.8772 61.739 31.1697 60.4546 31.7327 59.2816C32.2956 58.1086 33.1147 57.0769 34.1296 56.2627L34.207 56.2023C34.379 56.0678 34.542 55.9493 34.7097 55.8361C34.9588 55.6669 35.2164 55.5106 35.4815 55.3676L111.521 14.835C111.835 14.6675 112.187 14.5814 112.543 14.5844C112.899 14.5874 113.248 14.6795 113.559 14.8524L127.229 22.4389C127.564 22.6251 127.843 22.8982 128.036 23.2295C128.229 23.5609 128.33 23.9382 128.326 24.3217ZM135.549 57.3084C135.053 56.7425 134.485 56.2435 133.86 55.8243C133.819 55.7964 133.778 55.7686 133.73 55.7371C133.527 55.6047 133.318 55.4812 133.105 55.3666L57.0655 14.8346C56.7513 14.6672 56.4002 14.581 56.0442 14.5841C55.6881 14.5871 55.3385 14.6792 55.0272 14.852L41.3579 22.4386C41.0223 22.6247 40.7432 22.8978 40.5499 23.2292C40.3566 23.5606 40.2563 23.938 40.2596 24.3217C40.2629 24.7053 40.3696 25.081 40.5685 25.409C40.7673 25.7371 41.0511 26.0055 41.3897 26.1858L119.718 67.9381C119.827 67.996 119.939 68.044 120.055 68.0821L120.319 68.2301V146.15C120.319 146.521 120.416 146.886 120.6 147.209C120.785 147.531 121.05 147.8 121.37 147.988C121.69 148.176 122.054 148.278 122.425 148.283C122.796 148.287 123.162 148.195 123.487 148.015L136.612 140.73C136.945 140.546 137.222 140.275 137.415 139.947C137.608 139.619 137.71 139.246 137.71 138.865V63.0401C137.709 60.9308 136.941 58.8937 135.549 57.3084Z" fill="white" fill-opacity="0.3"/>
<path d="M110.119 44.9805C110.119 50.3326 103.555 54.2169 94.5108 54.2169C90.8224 54.2169 87.5473 53.5702 84.9611 52.4421C84.6308 52.2987 84.273 52.2299 83.9132 52.2406C83.5533 52.2513 83.2002 52.3413 82.8791 52.5041C80.1836 53.8645 76.6093 54.6573 72.5274 54.6573C63.4833 54.6573 56.9189 50.7729 56.9189 45.4209C56.9189 42.7263 58.5831 40.4042 61.3899 38.7619C62.4957 38.1152 62.96 36.7347 62.4123 35.5768C60.4117 31.3459 60.4761 27.3766 62.9298 24.9229C64.2006 23.6521 65.941 22.9804 67.9632 22.9804C69.384 22.9804 70.9268 23.3161 72.512 23.9464C73.121 24.1893 73.8011 24.1829 74.4055 23.9286C75.0098 23.6743 75.4899 23.1926 75.7421 22.5873C77.3712 18.6987 80.0668 16.3037 83.2988 16.3037C86.4757 16.3037 89.1352 18.6173 90.7722 22.3894C91.3155 23.6416 92.7498 24.2391 94.0114 23.7184C95.6678 23.0349 97.2815 22.6693 98.7633 22.6693C101.318 22.6693 102.91 23.7256 103.797 24.6118C106.209 27.0239 106.312 30.9 104.415 35.0498C103.883 36.214 104.355 37.5915 105.469 38.2211C108.384 39.8677 110.119 42.2299 110.119 44.9805Z" fill="#B69CFE"/>
</svg>
