<svg width="24" height="24" viewBox="0 0 24 24" fill="none" xmlns="http://www.w3.org/2000/svg">
<path d="M6 10V13C5.99999 13.1555 5.96369 13.3089 5.894 13.448L4.62 16H19.384L18.108 13.448C18.0376 13.3091 18.0006 13.1557 18 13V10C18 8.4087 17.3679 6.88258 16.2426 5.75736C15.1174 4.63214 13.5913 4 12 4C10.4087 4 8.88258 4.63214 7.75736 5.75736C6.63214 6.88258 6 8.4087 6 10ZM8 18H3C2.82947 18 2.66177 17.9564 2.51285 17.8733C2.36393 17.7902 2.23873 17.6704 2.14914 17.5253C2.05955 17.3802 2.00856 17.2146 2.00101 17.0443C1.99346 16.8739 2.0296 16.7045 2.106 16.552L4 12.764V10C4 7.87827 4.84285 5.84344 6.34314 4.34315C7.84343 2.84285 9.87827 2 12 2C14.1217 2 16.1566 2.84285 17.6569 4.34315C19.1571 5.84344 20 7.87827 20 10V12.764L21.894 16.552C21.9704 16.7045 22.0065 16.8739 21.999 17.0443C21.9914 17.2146 21.9404 17.3802 21.8509 17.5253C21.7613 17.6704 21.6361 17.7902 21.4871 17.8733C21.3382 17.9564 21.1705 18 21 18H16C16 19.0609 15.5786 20.0783 14.8284 20.8284C14.0783 21.5786 13.0609 22 12 22C10.9391 22 9.92172 21.5786 9.17157 20.8284C8.42142 20.0783 8 19.0609 8 18ZM14 18H10C10 18.5304 10.2107 19.0391 10.5858 19.4142C10.9609 19.7893 11.4696 20 12 20C12.5304 20 13.0391 19.7893 13.4142 19.4142C13.7893 19.0391 14 18.5304 14 18Z" fill="black"/>
</svg>
