<svg width="16" height="16" viewBox="0 0 16 16" fill="none" xmlns="http://www.w3.org/2000/svg">
<path d="M11.3333 2.22664C12.3468 2.81176 13.1884 3.65335 13.7735 4.66682C14.3586 5.68029 14.6667 6.82993 14.6666 8.00018C14.6666 9.17043 14.3586 10.3201 13.7734 11.3335C13.1883 12.347 12.3467 13.1886 11.3332 13.7737C10.3198 14.3588 9.17013 14.6668 7.99987 14.6668C6.82962 14.6668 5.67999 14.3587 4.66654 13.7736C3.65308 13.1884 2.81151 12.3468 2.2264 11.3333C1.6413 10.3199 1.33328 9.17022 1.33331 7.99997L1.33665 7.78397C1.37398 6.63263 1.70901 5.51061 2.30907 4.5273C2.90913 3.54399 3.75375 2.73294 4.76057 2.17322C5.7674 1.61351 6.90208 1.32423 8.05398 1.33359C9.20589 1.34295 10.3357 1.65063 11.3333 2.22664ZM11.276 5.60397C11.524 5.04597 10.954 4.47597 10.396 4.72397L4.39598 7.39064L4.32398 7.4273C3.82398 7.72064 3.91665 8.49997 4.50465 8.6473L6.78331 9.21597L7.35331 11.4953C7.50665 12.11 8.35198 12.1833 8.60931 11.604L11.276 5.60397Z" fill="#674AB9"/>
</svg>
