<svg width="44" height="44" viewBox="0 0 44 44" fill="none" xmlns="http://www.w3.org/2000/svg">
<path d="M11 40.3334C9.99171 40.3334 9.12882 39.9747 8.41137 39.2572C7.69393 38.5398 7.3346 37.6763 7.33337 36.6667V18.3334C7.33337 17.325 7.69271 16.4622 8.41137 15.7447C9.13004 15.0273 9.99293 14.6679 11 14.6667H12.8334V11C12.8334 8.46393 13.7274 6.30243 15.5155 4.51554C17.3037 2.72865 19.4652 1.8346 22 1.83338C24.5349 1.83215 26.697 2.72621 28.4864 4.51554C30.2757 6.30488 31.1692 8.46637 31.1667 11V14.6667H33C34.0084 14.6667 34.8719 15.026 35.5905 15.7447C36.3092 16.4634 36.6679 17.3263 36.6667 18.3334V36.6667C36.6667 37.675 36.308 38.5385 35.5905 39.2572C34.8731 39.9759 34.0096 40.3346 33 40.3334H11ZM22 31.1667C23.0084 31.1667 23.8719 30.808 24.5905 30.0905C25.3092 29.3731 25.6679 28.5096 25.6667 27.5C25.6655 26.4905 25.3068 25.6276 24.5905 24.9114C23.8743 24.1952 23.0108 23.8358 22 23.8334C20.9893 23.8309 20.1264 24.1903 19.4114 24.9114C18.6964 25.6325 18.337 26.4954 18.3334 27.5C18.3297 28.5047 18.689 29.3682 19.4114 30.0905C20.1337 30.8129 20.9966 31.1716 22 31.1667ZM16.5 14.6667H27.5V11C27.5 9.47226 26.9653 8.17365 25.8959 7.10421C24.8264 6.03476 23.5278 5.50004 22 5.50004C20.4723 5.50004 19.1737 6.03476 18.1042 7.10421C17.0348 8.17365 16.5 9.47226 16.5 11V14.6667Z" fill="white"/>
</svg>
