<svg width="11" height="11" viewBox="0 0 11 11" fill="none" xmlns="http://www.w3.org/2000/svg">
<path d="M9.39579 5.04171H8.70829V3.20837C8.70829 2.96526 8.61172 2.7321 8.43981 2.56019C8.2679 2.38828 8.03474 2.29171 7.79163 2.29171H5.95829V1.60421C5.95829 1.30031 5.83757 1.00887 5.62269 0.793981C5.4078 0.579095 5.11635 0.458374 4.81246 0.458374C4.50857 0.458374 4.21712 0.579095 4.00223 0.793981C3.78735 1.00887 3.66663 1.30031 3.66663 1.60421V2.29171H1.83329C1.59018 2.29171 1.35702 2.38828 1.18511 2.56019C1.0132 2.7321 0.916626 2.96526 0.916626 3.20837V4.95004H1.60413C2.29163 4.95004 2.84163 5.50004 2.84163 6.18754C2.84163 6.87504 2.29163 7.42504 1.60413 7.42504H0.916626V9.16671C0.916626 9.40982 1.0132 9.64298 1.18511 9.81489C1.35702 9.9868 1.59018 10.0834 1.83329 10.0834H3.57496V9.39587C3.57496 8.70837 4.12496 8.15837 4.81246 8.15837C5.49996 8.15837 6.04996 8.70837 6.04996 9.39587V10.0834H7.79163C8.03474 10.0834 8.2679 9.9868 8.43981 9.81489C8.61172 9.64298 8.70829 9.40982 8.70829 9.16671V7.33337H9.39579C9.69969 7.33337 9.99113 7.21265 10.206 6.99777C10.4209 6.78288 10.5416 6.49143 10.5416 6.18754C10.5416 5.88365 10.4209 5.5922 10.206 5.37731C9.99113 5.16243 9.69969 5.04171 9.39579 5.04171Z" fill="white"/>
</svg>
